<?xml version="1.0" encoding="utf-8"?>
<!-- Generator: Adobe Illustrator 27.7.0, SVG Export Plug-In . SVG Version: 6.00 Build 0)  -->
<svg version="1.1" id="Layer_1" xmlns="http://www.w3.org/2000/svg" xmlns:xlink="http://www.w3.org/1999/xlink" x="0px" y="0px"
	 viewBox="0 0 64 73.6" style="enable-background:new 0 0 64 73.6;" xml:space="preserve">
<style type="text/css">
	.st0{fill-rule:evenodd;clip-rule:evenodd;}
</style>
<g>
	<path class="st0" d="M32,0C14.3,0,0,14.3,0,31.9c0,14.5,9.8,27.2,23.8,30.9l7.2,10.7c0.4,0.6,1.2,0.7,1.8,0.4
		c0.1-0.1,0.3-0.2,0.4-0.4l7.2-10.7c17.1-4.5,27.2-22,22.7-39.1C59.2,9.8,46.5,0,32,0z M39.1,60.5c-0.3,0.1-0.6,0.3-0.8,0.5L32,70.6
		L25.6,61c-0.2-0.3-0.4-0.5-0.8-0.5C9.1,56.6-0.5,40.6,3.5,24.9S23.4-0.5,39.1,3.4s25.4,19.9,21.4,35.7
		C57.9,49.6,49.7,57.9,39.1,60.5L39.1,60.5z"/>
	<path class="st0" d="M32,5.1C17.2,5.1,5.1,17.1,5.1,32s12,26.9,26.9,26.9s26.9-12,26.9-26.9C58.8,17.1,46.8,5.1,32,5.1z M32,56.3
		C18.6,56.3,7.7,45.4,7.7,32S18.6,7.7,32,7.7S56.3,18.6,56.3,32C56.3,45.4,45.4,56.3,32,56.3z"/>
	<path class="st0" d="M41.9,16.1c-0.2-0.4-0.7-0.7-1.2-0.7H23.2c-0.5,0-0.9,0.3-1.2,0.7l-4.4,8.8c-0.1,0.2-0.1,0.4-0.1,0.6v1.1
		c0,1.6,0.8,3.1,2.2,3.9v16.9c0,0.7,0.6,1.3,1.3,1.3H43c0.7,0,1.3-0.6,1.3-1.3V30.4c1.4-0.8,2.2-2.3,2.2-3.9v-1.1
		c0-0.2,0-0.4-0.1-0.6L41.9,16.1z M24,17.9h16l3.1,6.2H20.9L24,17.9z M37.3,26.7c-0.1,1.1-1.1,1.9-2.2,1.8c-1-0.1-1.7-0.9-1.8-1.8
		H37.3z M30.7,26.7c-0.1,1.1-1.1,1.9-2.2,1.8c-1-0.1-1.7-0.9-1.8-1.8H30.7z M20.1,26.7h4c-0.1,1.1-1.1,1.9-2.2,1.8
		C21,28.4,20.2,27.6,20.1,26.7z M35.1,46h-6.2v-8.4h6.2V46z M41.7,46h-4v-9.7c0-0.7-0.6-1.3-1.3-1.3h-8.8c-0.7,0-1.3,0.6-1.3,1.3V46
		h-4v-15c1.2,0,2.3-0.5,3.1-1.4c1.7,1.8,4.6,1.9,6.5,0.1c0,0,0.1-0.1,0.1-0.1c1.7,1.8,4.6,1.9,6.5,0.1c0,0,0.1-0.1,0.1-0.1
		c0.8,0.8,1.9,1.3,3.1,1.4L41.7,46z M41.9,28.5c-1,0-1.9-0.8-2-1.8h4C43.8,27.7,42.9,28.5,41.9,28.5z"/>
</g>
</svg>
