<?xml version="1.0" encoding="utf-8"?>
<!-- Generator: Adobe Illustrator 26.5.0, SVG Export Plug-In . SVG Version: 6.00 Build 0)  -->
<svg version="1.1" id="Capa_1" xmlns="http://www.w3.org/2000/svg" xmlns:xlink="http://www.w3.org/1999/xlink" x="0px" y="0px"
	 viewBox="0 0 512 494" style="enable-background:new 0 0 512 494;" xml:space="preserve">
<style type="text/css">
	.st0{display:none;}
	.st1{display:inline;}
	.st2{fill:none;stroke:#000000;stroke-width:0.1;stroke-miterlimit:10;}
</style>
<g class="st0">
	<g class="st1">
		<rect class="st2" width="512" height="512"/>
		<line class="st2" x1="0" y1="496" x2="512" y2="496"/>
		<line class="st2" x1="0" y1="480" x2="512" y2="480"/>
		<line class="st2" x1="0" y1="464" x2="512" y2="464"/>
		<line class="st2" x1="0" y1="448" x2="512" y2="448"/>
		<line class="st2" x1="0" y1="432" x2="512" y2="432"/>
		<line class="st2" x1="0" y1="416" x2="512" y2="416"/>
		<line class="st2" x1="0" y1="400" x2="512" y2="400"/>
		<line class="st2" x1="0" y1="384" x2="512" y2="384"/>
		<line class="st2" x1="0" y1="368" x2="512" y2="368"/>
		<line class="st2" x1="0" y1="352" x2="512" y2="352"/>
		<line class="st2" x1="0" y1="336" x2="512" y2="336"/>
		<line class="st2" x1="0" y1="320" x2="512" y2="320"/>
		<line class="st2" x1="0" y1="304" x2="512" y2="304"/>
		<line class="st2" x1="0" y1="288" x2="512" y2="288"/>
		<line class="st2" x1="0" y1="272" x2="512" y2="272"/>
		<line class="st2" x1="0" y1="256" x2="512" y2="256"/>
		<line class="st2" x1="0" y1="240" x2="512" y2="240"/>
		<line class="st2" x1="0" y1="224" x2="512" y2="224"/>
		<line class="st2" x1="0" y1="208" x2="512" y2="208"/>
		<line class="st2" x1="0" y1="192" x2="512" y2="192"/>
		<line class="st2" x1="0" y1="176" x2="512" y2="176"/>
		<line class="st2" x1="0" y1="160" x2="512" y2="160"/>
		<line class="st2" x1="0" y1="144" x2="512" y2="144"/>
		<line class="st2" x1="0" y1="128" x2="512" y2="128"/>
		<line class="st2" x1="0" y1="112" x2="512" y2="112"/>
		<line class="st2" x1="0" y1="96" x2="512" y2="96"/>
		<line class="st2" x1="0" y1="80" x2="512" y2="80"/>
		<line class="st2" x1="0" y1="64" x2="512" y2="64"/>
		<line class="st2" x1="0" y1="48" x2="512" y2="48"/>
		<line class="st2" x1="0" y1="32" x2="512" y2="32"/>
		<line class="st2" x1="0" y1="16" x2="512" y2="16"/>
		<line class="st2" x1="496" y1="0" x2="496" y2="512"/>
		<line class="st2" x1="480" y1="0" x2="480" y2="512"/>
		<line class="st2" x1="464" y1="0" x2="464" y2="512"/>
		<line class="st2" x1="448" y1="0" x2="448" y2="512"/>
		<line class="st2" x1="432" y1="0" x2="432" y2="512"/>
		<line class="st2" x1="416" y1="0" x2="416" y2="512"/>
		<line class="st2" x1="400" y1="0" x2="400" y2="512"/>
		<line class="st2" x1="384" y1="0" x2="384" y2="512"/>
		<line class="st2" x1="368" y1="0" x2="368" y2="512"/>
		<line class="st2" x1="352" y1="0" x2="352" y2="512"/>
		<line class="st2" x1="336" y1="0" x2="336" y2="512"/>
		<line class="st2" x1="320" y1="0" x2="320" y2="512"/>
		<line class="st2" x1="304" y1="0" x2="304" y2="512"/>
		<line class="st2" x1="288" y1="0" x2="288" y2="512"/>
		<line class="st2" x1="272" y1="0" x2="272" y2="512"/>
		<line class="st2" x1="256" y1="0" x2="256" y2="512"/>
		<line class="st2" x1="240" y1="0" x2="240" y2="512"/>
		<line class="st2" x1="224" y1="0" x2="224" y2="512"/>
		<line class="st2" x1="208" y1="0" x2="208" y2="512"/>
		<line class="st2" x1="192" y1="0" x2="192" y2="512"/>
		<line class="st2" x1="176" y1="0" x2="176" y2="512"/>
		<line class="st2" x1="160" y1="0" x2="160" y2="512"/>
		<line class="st2" x1="144" y1="0" x2="144" y2="512"/>
		<line class="st2" x1="128" y1="0" x2="128" y2="512"/>
		<line class="st2" x1="112" y1="0" x2="112" y2="512"/>
		<line class="st2" x1="96" y1="0" x2="96" y2="512"/>
		<line class="st2" x1="80" y1="0" x2="80" y2="512"/>
		<line class="st2" x1="64" y1="0" x2="64" y2="512"/>
		<line class="st2" x1="48" y1="0" x2="48" y2="512"/>
		<line class="st2" x1="32" y1="0" x2="32" y2="512"/>
		<line class="st2" x1="16" y1="0" x2="16" y2="512"/>
	</g>
</g>
<g>
	<path d="M300.36,378.14c12.8,0,23.04-10.41,23.04-23.04c0-12.63-10.41-23.04-23.04-23.04c-12.63,0-23.04,10.41-23.04,23.04
		C277.32,367.73,287.56,378.14,300.36,378.14z M300.36,348.62c3.58,0,6.48,2.9,6.48,6.48c0,3.58-2.9,6.48-6.48,6.48
		s-6.48-2.9-6.48-6.48C293.87,351.52,296.77,348.62,300.36,348.62z"/>
	<path d="M381.75,32.08h-36.69V0H138.25v174.05L3.95,200.16l0,0H0.03v292.65h420.29V200.16h-38.57L381.75,32.08L381.75,32.08z
		 M365.2,200.16H191.83V48.63H365.2V200.16z M328.51,16.55v15.36H175.11v168.08H154.8V16.55H328.51z M138.25,190.95v9.21H90.64
		L138.25,190.95z M403.77,311.42H251.89v87.54h151.87v77.3H16.58V216.72h387.19L403.77,311.42L403.77,311.42z M403.6,327.97v54.26
		H268.45v-54.26H403.6z"/>
	<path d="M272.71,166.72c-4.61,0-9.21-1.88-12.46-5.12c-2.9-2.9-4.44-6.48-4.95-10.24l-0.34-2.22h-11.09l0.34,2.73
		c0.51,6.83,3.41,12.8,8.36,17.58c3.75,3.75,9.04,6.66,14.5,7.85v12.29h11.6v-12.63c13.14-2.73,22.7-14.5,22.7-27.99
		c0-15.7-12.97-28.5-28.67-28.5c-4.61,0-9.21-1.88-12.46-5.12c-3.24-3.24-5.12-7.85-5.12-12.46c0-9.73,8.02-17.58,17.58-17.58
		c9.04,0,16.55,6.83,17.41,15.7l0.34,2.22h10.92l-0.34-2.73c-0.85-12.63-10.24-23.21-22.7-25.77V61.43h-11.6v13.31
		c-13.14,2.73-22.7,14.5-22.7,27.99c0,7.68,3.07,15.02,8.53,20.48c5.46,5.46,12.63,8.53,20.48,8.53c9.73,0,17.58,8.02,17.58,17.58
		C290.29,158.7,282.44,166.72,272.71,166.72z"/>
	<path d="M474.41,80.88l19.97,1.37l1.19-16.55l-48.8-3.41l-2.9,47.44l16.55,1.02l1.19-19.11c17.75,28.16,50.34,93.34,24.06,160.23
		c-9.39,23.72-24.91,44.71-46.41,62.45l10.58,12.8c23.55-19.45,40.78-42.66,51.19-69.11C530.55,182.76,493.18,110.41,474.41,80.88z"
		/>
</g>
</svg>
